<svg width="40" height="41" viewBox="0 0 40 41" fill="none" xmlns="http://www.w3.org/2000/svg">
<rect y="0.5" width="40" height="40" rx="20" fill="#212224"/>
<g clip-path="url(#clip0_5159_4845)">
<g clip-path="url(#clip1_5159_4845)">
<path d="M19.8931 17.4297C18.2564 17.4297 16.9297 18.7564 16.9297 20.3931C16.9297 22.0298 18.2564 23.3565 19.8931 23.3565C21.5298 23.3565 22.8565 22.0298 22.8565 20.3931C22.8565 18.7564 21.5298 17.4297 19.8931 17.4297Z" fill="white"/>
<path d="M28.946 16.792C28.802 13.522 26.984 11.704 23.714 11.554C22.748 11.5 22.442 11.5 20 11.5C17.558 11.5 17.252 11.5 16.292 11.554C13.022 11.704 11.204 13.516 11.054 16.786C11 17.752 11 18.058 11 20.5C11 22.942 11 23.248 11.054 24.208C11.204 27.478 13.016 29.296 16.286 29.446C17.252 29.5 17.558 29.5 20 29.5C22.442 29.5 22.748 29.5 23.714 29.446C26.978 29.296 28.796 27.484 28.946 24.208C29 23.248 29 22.942 29 20.5C29 18.058 29 17.752 28.946 16.792ZM20 25.12C17.4484 25.12 15.38 23.0516 15.38 20.5C15.38 17.9484 17.4484 15.88 20 15.88C22.5516 15.88 24.62 17.9484 24.62 20.5C24.62 23.0516 22.5516 25.12 20 25.12ZM24.8 16.774C24.2036 16.774 23.72 16.2904 23.72 15.694C23.72 15.0976 24.2036 14.614 24.8 14.614C25.3964 14.614 25.88 15.0976 25.88 15.694C25.8816 15.9809 25.7684 16.2567 25.5656 16.4596C25.3627 16.6624 25.0869 16.7756 24.8 16.774Z" fill="white"/>
</g>
</g>
<defs>
<clipPath id="clip0_5159_4845">
<rect width="18" height="18" fill="white" transform="translate(11 11.5)"/>
</clipPath>
<clipPath id="clip1_5159_4845">
<rect width="18" height="18" fill="white" transform="translate(11 11.5)"/>
</clipPath>
</defs>
</svg>
