<svg width="40" height="41" viewBox="0 0 40 41" fill="none" xmlns="http://www.w3.org/2000/svg">
<rect y="0.5" width="40" height="40" rx="20" fill="#212224"/>
<g clip-path="url(#clip0_5159_4856)">
<g clip-path="url(#clip1_5159_4856)">
<path fill-rule="evenodd" clip-rule="evenodd" d="M20 10.5C25.5228 10.5 30 14.9771 30 20.5C30 26.0228 25.5228 30.5 20 30.5C14.4771 30.5 10 26.0228 10 20.5C10 14.9771 14.4771 10.5 20 10.5ZM23.9286 25.921H16.4036V26.2143H23.9286V25.921ZM23.3384 13.7499C21.5859 14.9099 20.3874 17.1226 20.3874 17.1226C19.8488 17.991 18.9675 19.5034 18.0838 21.0407L17.9182 21.3291C17.2838 22.4346 16.6592 23.533 16.1709 24.3944C15.826 24.3944 15.3708 24.0147 15.3708 24.0147C15.5404 24.4546 16 24.6917 16 24.6917C15.5294 25.5232 15.2232 26.0676 15.2232 26.0676L16.2561 25.6277C16.3729 25.3363 16.4952 25.0509 16.6225 24.7726C20.8872 24.6451 22.2012 22.1719 22.2995 21.9743L22.3052 21.9625C23.1383 20.43 22.1366 20.0915 22.0211 20.0583L22.0132 20.0561C22.0114 20.0556 22.0104 20.0554 22.0104 20.0554C20.5463 19.6543 18.1133 22.0601 18.1133 22.0601C19.3881 20.0777 20.6449 18.7752 20.9213 18.4979L20.9521 18.4672C20.9548 18.4644 20.9574 18.4619 20.9597 18.4596L20.9709 18.4486C20.9751 18.4445 20.9773 18.4424 20.9773 18.4424C21.7993 17.6303 21.5219 17.2289 21.4397 17.1413L21.4307 17.1321C21.4242 17.1258 21.4202 17.1226 21.4202 17.1226C23.6962 15.7155 23.7802 14.3802 23.7813 14.2084V14.1982C23.7812 14.1968 23.7812 14.1956 23.7812 14.1945L23.781 14.1904C23.781 13.529 23.3384 13.7499 23.3384 13.7499ZM21.7153 21.0462L21.7152 21.0544C21.7144 21.0895 21.7081 21.2322 21.6609 21.3972C21.4482 22.1432 20.3508 24.2172 16.7712 24.4546C16.7712 24.4546 18.0558 22.1075 20.6825 20.642C20.6825 20.642 21.7153 20.0472 21.7153 21.0462ZM20.8301 17.2693C21.2465 17.4323 20.8777 17.8093 20.8341 17.8519L20.8301 17.8558C20.7645 17.9268 20.6764 18.0173 20.5811 18.113L20.5085 18.1856C20.2393 18.4539 19.9448 18.7357 19.9448 18.7357C20.3551 17.9243 20.8301 17.2693 20.8301 17.2693ZM23.1908 14.3365C23.1908 14.3365 23.1863 14.3512 23.1762 14.379L23.1662 14.406C23.0523 14.7067 22.5156 15.9277 20.9773 16.976C20.9773 16.976 22.0971 15.2964 23.1908 14.3365Z" fill="white"/>
</g>
</g>
<defs>
<clipPath id="clip0_5159_4856">
<rect width="20" height="20" fill="white" transform="translate(10 10.5)"/>
</clipPath>
<clipPath id="clip1_5159_4856">
<rect width="20" height="20" fill="white" transform="translate(10 10.5)"/>
</clipPath>
</defs>
</svg>
