<svg width="40" height="41" viewBox="0 0 40 41" fill="none" xmlns="http://www.w3.org/2000/svg">
<rect y="0.5" width="40" height="40" rx="20" fill="#212224"/>
<g clip-path="url(#clip0_5159_4851)">
<g clip-path="url(#clip1_5159_4851)">
<path d="M29.8021 15.6903C29.5667 14.8282 28.8734 14.1492 27.9932 13.9187C26.3976 13.5 19.9996 13.5 19.9996 13.5C19.9996 13.5 13.6016 13.5 12.0059 13.9187C11.1257 14.1492 10.4324 14.8282 10.1971 15.6903C9.76953 17.253 9.76953 20.5135 9.76953 20.5135C9.76953 20.5135 9.76953 23.7739 10.1971 25.3367C10.4324 26.1988 11.1257 26.8496 12.0059 27.0799C13.6016 27.4987 19.9996 27.4987 19.9996 27.4987C19.9996 27.4987 26.3975 27.4987 27.9932 27.0799C28.8734 26.8496 29.5667 26.1988 29.8021 25.3367C30.2295 23.7739 30.2295 20.5135 30.2295 20.5135C30.2295 20.5135 30.2295 17.253 29.8021 15.6903ZM17.907 23.4737V17.5532L23.2545 20.5136L17.907 23.4737Z" fill="white"/>
</g>
</g>
<defs>
<clipPath id="clip0_5159_4851">
<rect width="21" height="14" fill="white" transform="translate(9.5 13.5)"/>
</clipPath>
<clipPath id="clip1_5159_4851">
<rect width="21" height="14" fill="white" transform="translate(9.5 13.5)"/>
</clipPath>
</defs>
</svg>
