<svg width="82" height="41" viewBox="0 0 82 41" fill="none" xmlns="http://www.w3.org/2000/svg">
<rect y="0.5" width="82" height="40" rx="20" fill="#212224"/>
<path d="M32.9766 13.7188V27.9375H31.0859V13.7188H32.9766ZM20.3828 23.7812C22.4766 22.4922 23.2578 19.9453 23.2578 17.5312V16.7656H20.9297V15.1719H27.3359V16.7656H25.1797V17.5312C25.1719 19.8906 25.9141 22.2812 27.9922 23.4688L26.8203 24.9375C25.5469 24.1875 24.7188 22.9219 24.2344 21.3906C23.75 23.0469 22.8906 24.4531 21.5859 25.25L20.3828 23.7812ZM26.3203 20.2031V18.5938H28.1953V13.9531H30.0703V27.2812H28.1953V20.2031H26.3203ZM42.5859 14.5469V16.1406H39.7578C39.7656 17.8047 40.7656 19.5156 43.0703 20.25L42.0547 21.7969C40.4766 21.2812 39.3906 20.2656 38.7734 19C38.1406 20.3828 37 21.4922 35.3516 22.0312L34.2891 20.5C36.6406 19.7422 37.7188 17.9141 37.7422 16.1406H34.8359V14.5469H42.5859ZM36.2109 24.4844V22.9062H45.7891V27.9375H43.7891V24.4844H36.2109ZM43.7891 22.2969V13.7188H45.7891V17.1719H47.7109V18.8281H45.7891V22.2969H43.7891ZM53.5859 17.5938C53.5781 19.7578 54.7344 22.2578 57.0703 23.3438L55.9609 24.9062C54.375 24.1797 53.25 22.7266 52.6094 21.0234C51.9766 22.8984 50.8047 24.4922 49.1641 25.2656L48.0078 23.6875C50.375 22.5859 51.5703 19.9453 51.5859 17.5938V16.7188H48.5703V15.0938H56.4453V16.7188H53.5859V17.5938ZM57.5547 27.9375V13.7188H59.5547V19.1406H61.6484V20.8125H59.5547V27.9375H57.5547Z" fill="white"/>
</svg>
